<svg xmlns="http://www.w3.org/2000/svg" width="500" height="500" fill="none"><rect width="500" height="500" fill="#1E1E1E" rx="250"/><g clip-path="url(#a)"><path fill="#1ABCFE" d="M249.555 250.333a52.777 52.777 0 1 1 105.553 0 52.777 52.777 0 0 1-105.553 0"/><path fill="#0ACF83" d="M144 355.889a52.777 52.777 0 0 1 52.778-52.778h52.778v52.778a52.78 52.78 0 0 1-15.459 37.319A52.776 52.776 0 0 1 144 355.889"/><path fill="#FF7262" d="M249.555 92v105.556h52.777a52.778 52.778 0 0 0 0-105.556z"/><path fill="#F24E1E" d="M144 144.778a52.775 52.775 0 0 0 52.778 52.778h52.778V92h-52.778A52.78 52.78 0 0 0 144 144.778"/><path fill="#A259FF" d="M144 250.333a52.777 52.777 0 0 0 52.778 52.778h52.778V197.556h-52.778A52.777 52.777 0 0 0 144 250.333"/></g><defs><clipPath id="a"><path fill="#fff" d="M144 92h211.111v316.667H144z"/></clipPath></defs></svg>